<?xml version="1.0" standalone="no"?>
<!DOCTYPE svg PUBLIC "-//W3C//DTD SVG 20010904//EN"
 "http://www.w3.org/TR/2001/REC-SVG-20010904/DTD/svg10.dtd">
<svg version="1.0" xmlns="http://www.w3.org/2000/svg"
 width="256.000000pt" height="256.000000pt" viewBox="0 0 256.000000 256.000000"
 preserveAspectRatio="xMidYMid meet">

<g transform="translate(0.000000,256.000000) scale(0.100000,-0.100000)"
fill="#3178c6" stroke="none">
<path d="M153 2550 c-69 -16 -124 -74 -143 -150 -8 -32 -10 -363 -8 -1150 3
-1025 4 -1107 20 -1137 27 -48 86 -91 142 -103 36 -8 384 -10 1151 -8 1020 3
1102 4 1132 20 48 27 91 86 103 142 8 36 10 384 8 1151 -3 1020 -4 1102 -20
1132 -25 45 -83 89 -134 102 -50 13 -2198 14 -2251 1z m2090 -1085 l57 -18 0
-134 0 -133 -48 24 c-80 41 -160 60 -252 60 -129 0 -200 -44 -200 -122 0 -56
61 -107 206 -170 260 -114 344 -210 344 -391 0 -107 -20 -168 -77 -231 -87
-97 -213 -140 -414 -140 -126 0 -201 10 -296 41 l-63 21 0 144 c0 80 4 143 8
140 5 -3 33 -21 61 -41 103 -69 293 -101 393 -66 52 18 88 63 88 111 0 54 -49
101 -159 152 -218 101 -237 112 -292 167 -78 79 -102 144 -97 266 3 76 8 98
33 144 49 89 142 153 272 186 82 20 356 14 436 -10z m-843 -110 l0 -115 -175
0 -175 0 0 -505 0 -505 -145 0 -145 0 0 505 0 505 -175 0 -175 0 0 115 0 115
495 0 495 0 0 -115z"/>
</g>
</svg>
